<svg width="20" height="20" viewBox="0 0 20 20" fill="none" xmlns="http://www.w3.org/2000/svg">
<path fill-rule="evenodd" clip-rule="evenodd" d="M3.32958 2.66254C3.58499 2.43035 3.98028 2.44917 4.21247 2.70458L16.7125 16.4546C16.9447 16.71 16.9258 17.1053 16.6704 17.3375C16.415 17.5697 16.0197 17.5508 15.7875 17.2954L3.28754 3.54542C3.05535 3.29001 3.07417 2.89473 3.32958 2.66254Z" fill="#A259FF"/>
<path fill-rule="evenodd" clip-rule="evenodd" d="M8.36091 7.267C8.59308 7.52243 8.57422 7.91771 8.31879 8.14988C7.9454 8.48927 7.68344 8.9337 7.56736 9.42475C7.45128 9.9158 7.48651 10.4305 7.66841 10.9011C7.85032 11.3718 8.17039 11.7764 8.58654 12.0617C9.00269 12.3471 9.49545 12.4998 10 12.4999L10.0023 12.4999C10.623 12.5022 11.2217 12.2708 11.6794 11.8515C11.9339 11.6184 12.3292 11.6357 12.5624 11.8902C12.7956 12.1447 12.7782 12.5401 12.5237 12.7732C11.8347 13.4045 10.9332 13.7531 9.99875 13.7499C9.24228 13.7496 8.50357 13.5205 7.87966 13.0927C7.25543 12.6646 6.77533 12.0578 6.50247 11.3518C6.22961 10.6458 6.17677 9.87376 6.35089 9.13719C6.52501 8.40061 6.91794 7.73396 7.47803 7.22488C7.73346 6.99271 8.12874 7.01157 8.36091 7.267Z" fill="#A259FF"/>
<path fill-rule="evenodd" clip-rule="evenodd" d="M6.33917 5.0778C6.49474 5.38593 6.37107 5.76184 6.06294 5.91742C4.57739 6.66747 3.51286 7.75401 2.81653 8.66332C2.4694 9.11662 2.21726 9.52136 2.05315 9.81014C2.01303 9.88075 1.97823 9.94431 1.94866 9.99982C2.02219 10.1376 2.12784 10.3247 2.26718 10.546C2.58033 11.0434 3.06008 11.7076 3.72319 12.3707C5.0458 13.6933 7.08286 15.0001 10 15.0001H10.0051C11.3702 15.0112 12.7183 14.6967 13.9376 14.0826C14.2459 13.9273 14.6217 14.0513 14.7769 14.3596C14.9322 14.6679 14.8082 15.0436 14.4999 15.1989C13.1039 15.9021 11.5604 16.2625 9.99739 16.2501C6.66592 16.2493 4.32881 14.7441 2.83931 13.2546C2.09617 12.5114 1.56029 11.7694 1.20939 11.212C1.03362 10.9329 0.903372 10.6987 0.815983 10.5318C0.772266 10.4484 0.739205 10.3816 0.716475 10.3344C0.705108 10.3108 0.696319 10.2921 0.690066 10.2786L0.682581 10.2622L0.680255 10.2571L0.679444 10.2553L0.679126 10.2545C0.678992 10.2542 0.678867 10.254 1.25 10.0001C0.678624 9.74683 0.678714 9.74663 0.678809 9.74642L0.679551 9.74475L0.680981 9.74156L0.68536 9.7319C0.688956 9.72402 0.693909 9.71328 0.700236 9.69982C0.712887 9.6729 0.731042 9.63508 0.754828 9.58746C0.802385 9.49224 0.872552 9.35765 0.966375 9.19255C1.15383 8.86268 1.43685 8.40902 1.8241 7.90333C2.59651 6.89467 3.79761 5.66089 5.49956 4.80158C5.80768 4.646 6.18359 4.76967 6.33917 5.0778ZM1.25 10.0001L0.678809 9.74642C0.607224 9.9079 0.607128 10.0925 0.678867 10.254L1.25 10.0001Z" fill="#A259FF"/>
<path fill-rule="evenodd" clip-rule="evenodd" d="M8.27969 3.89141C8.8484 3.79621 9.42408 3.74892 10.0007 3.75002C10.0009 3.75002 10.0005 3.75002 10.0007 3.75002L10.0001 4.37502V3.75002C10.0003 3.75002 10.0005 3.75002 10.0007 3.75002C13.3332 3.75021 15.671 5.25578 17.1608 6.74558C17.9039 7.48872 18.4398 8.23078 18.7907 8.7881C18.9664 9.06726 19.0967 9.30148 19.1841 9.46832C19.2278 9.55178 19.2609 9.61851 19.2836 9.66571C19.295 9.68932 19.3037 9.70806 19.31 9.72158L19.3175 9.73792L19.3198 9.74308L19.3206 9.74489L19.3209 9.7456C19.3211 9.7459 19.3212 9.74618 18.7501 10C18.1789 9.74618 18.179 9.74605 18.1791 9.74592L18.1743 9.75623C18.1699 9.76579 18.1625 9.78142 18.1522 9.80265C18.1316 9.84514 18.0992 9.91002 18.0546 9.99372C18.0535 9.99581 18.0524 9.99792 18.0513 10C17.9777 9.8623 17.8721 9.67527 17.7329 9.45412C17.4197 8.95676 16.94 8.29257 16.2769 7.62946C14.9543 6.30685 12.9172 5.00002 10.0001 5.00002H9.99883C9.49199 4.99902 8.98596 5.04058 8.48607 5.12425C8.14562 5.18124 7.82344 4.95146 7.76646 4.61102C7.70947 4.27058 7.93925 3.9484 8.27969 3.89141ZM18.7501 10L19.3212 10.2539C19.393 10.0923 19.393 9.90779 19.3212 9.74618L18.7501 10ZM18.0513 10C17.962 10.1673 17.8255 10.4071 17.6391 10.6921C17.2607 11.2708 16.6816 12.0284 15.8803 12.7451C15.623 12.9753 15.601 13.3704 15.8311 13.6276C16.0612 13.8849 16.4564 13.9069 16.7136 13.6768C17.6154 12.8701 18.2629 12.0222 18.6853 11.3763C18.8969 11.0526 19.0533 10.7777 19.1579 10.5813C19.2103 10.483 19.2498 10.4041 19.2768 10.3484C19.2903 10.3205 19.3008 10.2984 19.3081 10.2825L19.3169 10.2633L19.3196 10.2574L19.3206 10.2553L19.3209 10.2545C19.321 10.2543 19.3212 10.2539 18.7501 10C18.1789 10.2539 18.179 10.2541 18.1791 10.2543L18.1754 10.2462C18.1718 10.2384 18.1658 10.2256 18.1573 10.208C18.1404 10.1728 18.1136 10.1187 18.0768 10.0483C18.0688 10.033 18.0602 10.0169 18.0513 10Z" fill="#A259FF"/>
<path fill-rule="evenodd" clip-rule="evenodd" d="M9.97185 6.81358C10.0361 6.47444 10.3631 6.2516 10.7023 6.31586C11.5001 6.46702 12.2271 6.87359 12.7736 7.4742C13.32 8.0748 13.6563 8.83686 13.7317 9.64537C13.7637 9.98906 13.5111 10.2936 13.1674 10.3257C12.8237 10.3577 12.5191 10.1051 12.4871 9.76136C12.4369 9.22292 12.2129 8.71541 11.849 8.31543C11.4851 7.91544 11.0009 7.64468 10.4696 7.54401C10.1304 7.47975 9.9076 7.15272 9.97185 6.81358Z" fill="#A259FF"/>
</svg>
